<svg id="Layer_1" data-name="Layer 1" xmlns="http://www.w3.org/2000/svg" viewBox="0 0 578.03 221.48"><defs><style>.cls-1,.cls-2,.cls-25,.cls-3,.cls-31,.cls-4,.cls-5,.cls-6,.cls-7{fill:none;}.cls-1{stroke:#b2b2b2;}.cls-1,.cls-2,.cls-26,.cls-3,.cls-31,.cls-4,.cls-5,.cls-64,.cls-7{stroke-miterlimit:15.12;}.cls-1,.cls-3,.cls-31,.cls-5,.cls-6,.cls-7{stroke-width:5px;}.cls-2,.cls-26,.cls-27,.cls-64,.cls-8{stroke:#010101;}.cls-2{stroke-width:4px;}.cls-3,.cls-53{stroke:#6096ba;}.cls-4,.cls-62{stroke:#fab62e;}.cls-4{stroke-width:4.5px;}.cls-42,.cls-5{stroke:#407f32;}.cls-31,.cls-58,.cls-6{stroke:#b56576;}.cls-27,.cls-42,.cls-46,.cls-53,.cls-58,.cls-6,.cls-62,.cls-8{stroke-miterlimit:10;}.cls-46,.cls-7{stroke:#e27a5f;}.cls-8{font-size:10px;}.cls-27,.cls-63,.cls-65,.cls-8{fill:#1d1d1b;}.cls-27,.cls-8{stroke-width:0.2px;}.cls-27,.cls-42,.cls-46,.cls-53,.cls-58,.cls-62,.cls-65,.cls-8{font-family:MyriadPro-Regular, Myriad Pro;}.cls-9{letter-spacing:-0.01em;}.cls-10{letter-spacing:0em;}.cls-11{letter-spacing:0em;}.cls-12{letter-spacing:-0.01em;}.cls-13{letter-spacing:0em;}.cls-14{letter-spacing:-0.01em;}.cls-15{letter-spacing:-0.01em;}.cls-16{letter-spacing:-0.01em;}.cls-17{letter-spacing:0em;}.cls-18{letter-spacing:0em;}.cls-19{letter-spacing:0em;}.cls-20{letter-spacing:-0.01em;}.cls-21,.cls-24,.cls-26,.cls-64{fill:#fff;}.cls-22,.cls-23{fill:#010101;}.cls-23{fill-rule:evenodd;}.cls-24{isolation:isolate;font-size:9.78px;font-family:Arial-BoldMT, Arial;font-weight:700;}.cls-26,.cls-64{stroke-linecap:round;}.cls-26{stroke-width:3px;}.cls-27{font-size:9.2px;}.cls-28{letter-spacing:-0.01em;}.cls-29{letter-spacing:-0.01em;}.cls-30{letter-spacing:0em;}.cls-32{letter-spacing:0.01em;}.cls-33{letter-spacing:-0.01em;}.cls-34{letter-spacing:0em;}.cls-35{letter-spacing:0.03em;}.cls-36{letter-spacing:-0.01em;}.cls-37{letter-spacing:-0.02em;}.cls-38{letter-spacing:-0.01em;}.cls-39{letter-spacing:0em;}.cls-40{letter-spacing:-0.01em;}.cls-41{letter-spacing:0em;}.cls-42,.cls-46,.cls-53,.cls-58,.cls-62{font-size:12px;stroke-width:0.3px;}.cls-42{fill:#407e31;}.cls-43{letter-spacing:0.01em;}.cls-44{letter-spacing:-0.01em;}.cls-45{letter-spacing:0em;}.cls-46{fill:#e17a5f;}.cls-47{letter-spacing:-0.03em;}.cls-48{letter-spacing:0em;}.cls-49{letter-spacing:0em;}.cls-50{letter-spacing:-0.01em;}.cls-51{letter-spacing:0em;}.cls-52{letter-spacing:0em;}.cls-53{fill:#6096ba;}.cls-54{letter-spacing:0em;}.cls-55{letter-spacing:0.01em;}.cls-56{letter-spacing:-0.01em;}.cls-57{letter-spacing:0em;}.cls-58{fill:#b56576;}.cls-59{letter-spacing:-0.01em;}.cls-60{letter-spacing:-0.01em;}.cls-61{letter-spacing:-0.01em;}.cls-62{fill:#fab52d;}.cls-63{opacity:0.05;}.cls-64{stroke-width:2.5px;}.cls-65{font-size:8.96px;}.cls-66{letter-spacing:0em;}.cls-67{letter-spacing:-0.01em;}.cls-68{letter-spacing:0em;}.cls-69{letter-spacing:0.01em;}</style></defs><path id="path2500-5-22" class="cls-1" d="M385.46,100.32h13.19"/><path id="path2500-5-22-2-7-5" class="cls-2" d="M400.09,95.06v10.53"/><path id="path2500-5-22-2" data-name="path2500-5-22" class="cls-1" d="M227.16,147.28V134.67"/><path id="path2500-5-22-3" data-name="path2500-5-22" class="cls-3" d="M252.75,100.32h140"/><path id="path2500-5-60-6-9" class="cls-4" d="M516.8,167.49H476.3"/><path id="path2500-5-22-59-1" class="cls-1" d="M237.25,56.57H245c5.16,0,10.32,7.08,10.32,14.16V81.35"/><path id="path2500-5-22-4" data-name="path2500-5-22" class="cls-1" d="M255.31,121.21V80.12"/><path id="path2500-5-22-59-1-2" data-name="path2500-5-22-59-1" class="cls-1" d="M237.25,146H245c5.16,0,10.32-7.08,10.32-14.16V121.21"/><path id="path2500-5-22-5" data-name="path2500-5-22" class="cls-5" d="M227.16,195.94v-49.4"/><path id="path2500-5-60-6-9-2" data-name="path2500-5-60-6-9" class="cls-6" d="M544.68,35.33H475.36"/><path id="path2500-5-22-6" data-name="path2500-5-22" class="cls-5" d="M145.09,191.32V145.78"/><path id="path2500-5-22-7" data-name="path2500-5-22" class="cls-7" d="M35.1,146h34"/><path id="path2500-5-22-8" data-name="path2500-5-22" class="cls-7" d="M135.88,146h93.78"/><text class="cls-8" transform="translate(80.42 131.08)">VEP</text><text class="cls-8" transform="translate(114.41 126.08)">VCF<tspan class="cls-9" x="-11.65" y="10">f</tspan><tspan x="-8.86" y="10">o</tspan><tspan class="cls-10" x="-3.37" y="10">r</tspan><tspan x="-0.06" y="10">m</tspan><tspan class="cls-11" x="8.28" y="10">a</tspan><tspan x="13.06" y="10">t</tspan><tspan class="cls-12" x="16.37" y="10">t</tspan><tspan x="19.62" y="10">er</tspan></text><text class="cls-8" transform="translate(166.74 126.08)">annot<tspan class="cls-13" x="24.72" y="0">a</tspan><tspan class="cls-14" x="29.5" y="0">t</tspan><tspan x="32.75" y="0">e</tspan><tspan x="6.74" y="10">d</tspan><tspan class="cls-10" x="12.38" y="10">r</tspan><tspan x="15.69" y="10">i</tspan><tspan class="cls-15" x="18.03" y="10">v</tspan><tspan x="22.74" y="10">er</tspan></text><text class="cls-8" transform="translate(161.03 37.39)">CNA<tspan class="cls-16" x="-10.52" y="10">f</tspan><tspan x="-7.73" y="10">o</tspan><tspan class="cls-17" x="-2.25" y="10">r</tspan><tspan class="cls-18" x="1.06" y="10">m</tspan><tspan class="cls-19" x="9.41" y="10">a</tspan><tspan x="14.19" y="10">t</tspan><tspan class="cls-20" x="17.5" y="10">t</tspan><tspan x="20.75" y="10">er</tspan></text><path id="path2500-5-22-9" data-name="path2500-5-22" class="cls-5" d="M106.3,193.19H229.24"/><g id="g18488"><path id="path6276-4" class="cls-21" d="M79.89,180.15v26.09H99.43V186.67l-6.52-6.52Z"/><path id="path5862" class="cls-22" d="M101.06,185c0-.33-.33-.65-.65-1l-5.54-4.89c-.33-.33-.65-.65-1-.65h-14a1.54,1.54,0,0,0-1.63,1.63v26.09a1.54,1.54,0,0,0,1.63,1.63H99.43a1.54,1.54,0,0,0,1.63-1.63Zm-1.63,21.2H79.89V180.15h13V186a.62.62,0,0,0,.66.65h5.86Z"/><path id="rect18347" class="cls-23" d="M78.32,189.93H101a1.56,1.56,0,0,1,1.7,1.37v7a1.56,1.56,0,0,1-1.7,1.37H78.32a1.56,1.56,0,0,1-1.69-1.37v-7A1.54,1.54,0,0,1,78.32,189.93Z"/><text class="cls-24" transform="translate(79.14 197.81)">bam</text></g><line class="cls-25" x1="91.54" y1="95.17" x2="91.78" y2="95.4"/><path id="path2500-5-22-10" data-name="path2500-5-22" class="cls-1" d="M120,56.57H237.25"/><ellipse id="path3447-6" class="cls-26" cx="170.28" cy="56.57" rx="5.01" ry="5.02"/><path id="path2500-5-22-11" data-name="path2500-5-22" class="cls-7" d="M69.13,146H102"/><ellipse id="path3447-6-2" data-name="path3447-6" class="cls-26" cx="88.4" cy="145.99" rx="5.01" ry="5.02"/><path id="path2500-5-22-12" data-name="path2500-5-22" class="cls-7" d="M102,146h33.84"/><ellipse id="path3447-6-3" data-name="path3447-6" class="cls-26" cx="122.38" cy="145.99" rx="5.01" ry="5.02"/><ellipse id="path3447-6-4" data-name="path3447-6" class="cls-26" cx="185.67" cy="145.99" rx="5.01" ry="5.02"/><text class="cls-8" transform="translate(168.14 183.78)">mpileup</text><text class="cls-27" transform="translate(220.1 208.4)">join</text><text class="cls-27" transform="translate(128.88 208.4)">bed<tspan class="cls-28" x="15.04" y="0">t</tspan><tspan x="18.03" y="0">ools</tspan></text><text class="cls-8" transform="translate(306.06 90.6)">CN<tspan class="cls-29" x="12.38" y="0">A</tspan><tspan class="cls-30" x="18.38" y="0">qc</tspan></text><text class="cls-8" transform="translate(333.2 118.21)">joinCN<tspan class="cls-29" x="28.19" y="0">A</tspan><tspan x="34.19" y="0">qc</tspan></text><text class="cls-8" transform="translate(272.97 118.21)">TINC</text><path id="path1232-36-5-9-0-7-7-0-7-3-2-1-0-1-4-1-1" class="cls-31" d="M476.45,35.33H459c-6.23,0-12.54,3.54-20,10.62s-14,10.62-20.05,10.62h-10"/><path id="path2500-5-60-6-9-3" data-name="path2500-5-60-6-9" class="cls-31" d="M546.19,56.46H421.74"/><path id="path2500-5-60-6-9-4" data-name="path2500-5-60-6-9" class="cls-6" d="M546.2,77.81H476.51"/><path id="rect918-8" class="cls-26" d="M517.59,32h0c3,0,5.42,3,5.42,6.57v36c0,3.62-2.44,6.57-5.42,6.57h0c-3,0-5.43-3-5.43-6.57v-36C512.16,35,514.6,32,517.59,32Z"/><text class="cls-8" transform="translate(507.04 25.34)"><tspan class="cls-32">c</tspan><tspan x="4.61" y="0">t</tspan><tspan class="cls-33" x="7.92" y="0">r</tspan><tspan x="11.09" y="0">ee</tspan></text><text class="cls-8" transform="translate(455.51 25.34)"><tspan class="cls-34">P</tspan><tspan x="5.36" y="0">yClon</tspan><tspan class="cls-35" x="29.27" y="0">e</tspan><tspan class="cls-36" x="34.56" y="0">-</tspan><tspan x="37.52" y="0">VI</tspan></text><text class="cls-8" transform="translate(446.33 50.54)">VIBER</text><text class="cls-8" transform="translate(457.98 95.28)">MOBSTER</text><g id="g18488-2" data-name="g18488"><path id="path6276-4-2" data-name="path6276-4" class="cls-21" d="M217.39,102.26v26.09h19.54V108.78l-6.51-6.52Z"/><path id="path5862-2" data-name="path5862" class="cls-22" d="M238.56,107.15c0-.32-.32-.65-.65-1l-5.54-4.89c-.32-.32-.65-.65-1-.65h-14a1.54,1.54,0,0,0-1.63,1.63v26.09a1.54,1.54,0,0,0,1.63,1.63h19.54a1.54,1.54,0,0,0,1.63-1.63Zm-1.63,21.2H217.39V102.26h13v5.87a.61.61,0,0,0,.65.65h5.86Z"/><path id="rect18347-2" data-name="rect18347" class="cls-23" d="M215.83,112H238.5a1.56,1.56,0,0,1,1.69,1.37v7a1.56,1.56,0,0,1-1.69,1.37H215.83a1.55,1.55,0,0,1-1.69-1.37v-7A1.53,1.53,0,0,1,215.83,112Z"/><text class="cls-24" transform="translate(219.09 119.92)">rds</text></g><path id="rect918-9-7" class="cls-26" d="M141.58,188.08h7a1.49,1.49,0,0,1,1.5,1.53v7.16a1.49,1.49,0,0,1-1.5,1.54h-7a1.49,1.49,0,0,1-1.5-1.54v-7.16A1.49,1.49,0,0,1,141.58,188.08Z"/><path id="rect918-9-7-2" data-name="rect918-9-7" class="cls-26" d="M223.66,188.08h7a1.49,1.49,0,0,1,1.5,1.53v7.16a1.49,1.49,0,0,1-1.5,1.54h-7a1.5,1.5,0,0,1-1.51-1.54v-7.16A1.49,1.49,0,0,1,223.66,188.08Z"/><path id="rect918-9-7-3" data-name="rect918-9-7" class="cls-26" d="M182.08,188.08h7a1.49,1.49,0,0,1,1.5,1.53v7.16a1.49,1.49,0,0,1-1.5,1.54h-7a1.49,1.49,0,0,1-1.5-1.54v-7.16A1.49,1.49,0,0,1,182.08,188.08Z"/><g id="g18488-3" data-name="g18488"><path id="path6276-4-3" data-name="path6276-4" class="cls-21" d="M8,133V159H27.54V139.47L21,133Z"/><path id="path5862-3" data-name="path5862" class="cls-22" d="M29.17,137.84c0-.32-.32-.65-.65-1L23,132c-.32-.32-.65-.65-1-.65H8A1.54,1.54,0,0,0,6.37,133V159A1.54,1.54,0,0,0,8,160.67H27.54A1.54,1.54,0,0,0,29.17,159ZM27.54,159H8V133H21v5.87a.61.61,0,0,0,.65.65h5.86Z"/><path id="rect18347-3" data-name="rect18347" class="cls-23" d="M6.44,142.73H29.11a1.56,1.56,0,0,1,1.69,1.37v7.05a1.56,1.56,0,0,1-1.69,1.37H6.44a1.56,1.56,0,0,1-1.7-1.37V144.1A1.54,1.54,0,0,1,6.44,142.73Z"/><text class="cls-24" transform="translate(10.24 150.61)">vcf</text></g><g id="g18488-4" data-name="g18488"><path id="path6276-4-4" data-name="path6276-4" class="cls-21" d="M217.39,11.3V37.39h19.54V17.82l-6.51-6.52Z"/><path id="path5862-4" data-name="path5862" class="cls-22" d="M238.56,16.19c0-.33-.32-.65-.65-1l-5.54-4.89c-.32-.33-.65-.65-1-.65h-14a1.54,1.54,0,0,0-1.63,1.63V37.39A1.54,1.54,0,0,0,217.39,39h19.54a1.54,1.54,0,0,0,1.63-1.63Zm-1.63,21.2H217.39V11.3h13v5.87a.61.61,0,0,0,.65.65h5.86Z"/><path id="rect18347-4" data-name="rect18347" class="cls-23" d="M215.83,21.08H238.5a1.56,1.56,0,0,1,1.69,1.37V29.5a1.56,1.56,0,0,1-1.69,1.37H215.83a1.55,1.55,0,0,1-1.69-1.37v-7A1.53,1.53,0,0,1,215.83,21.08Z"/><text class="cls-24" transform="translate(219.09 28.96)">rds</text></g><g id="g18488-5" data-name="g18488"><path id="path6276-4-5" data-name="path6276-4" class="cls-21" d="M93.52,43.52V69.61h19.54V50.05l-6.51-6.53Z"/><path id="path5862-5" data-name="path5862" class="cls-22" d="M114.69,48.42c0-.33-.33-.66-.65-1l-5.54-4.89c-.33-.33-.65-.66-1-.66h-14a1.54,1.54,0,0,0-1.63,1.63V69.61a1.54,1.54,0,0,0,1.63,1.63h19.54a1.54,1.54,0,0,0,1.63-1.63Zm-1.63,21.19H93.52V43.52h13v5.87a.62.62,0,0,0,.65.66h5.86Z"/><path id="rect18347-5" data-name="rect18347" class="cls-23" d="M92,53.31h22.67a1.56,1.56,0,0,1,1.7,1.37v7a1.56,1.56,0,0,1-1.7,1.37H92a1.56,1.56,0,0,1-1.69-1.37v-7A1.53,1.53,0,0,1,92,53.31Z"/><text class="cls-24" transform="translate(97.5 61.19)">txt</text></g><path id="path1232-36-5-9-0-7-7-0-7-3-2-1-0-1-4-1-1-2" data-name="path1232-36-5-9-0-7-7-0-7-3-2-1-0-1-4-1-1" class="cls-4" d="M476.51,124.51H459c-6.24,0-12.54,3.54-20,10.62s-14,10.62-20,10.62H409"/><path id="path2500-5-60-6-9-5" data-name="path2500-5-60-6-9" class="cls-4" d="M517,124.51H476.51"/><text class="cls-8" transform="translate(456.98 115.31)">Sig<tspan class="cls-37" x="12.86" y="0">P</tspan><tspan class="cls-38" x="18.02" y="0">r</tspan><tspan class="cls-39" x="21.19" y="0">ofiler</tspan></text><text class="cls-8" transform="translate(444.37 157)">SparseSi<tspan class="cls-40" x="34.95" y="0">g</tspan><tspan x="40.48" y="0">n</tspan><tspan class="cls-41" x="46.03" y="0">a</tspan><tspan x="50.81" y="0">tu</tspan><tspan class="cls-38" x="59.63" y="0">r</tspan><tspan x="62.8" y="0">e</tspan></text><text class="cls-42" transform="translate(172.64 218.33)">Li<tspan class="cls-43" x="8.47" y="0">f</tspan><tspan class="cls-44" x="12.11" y="0">t</tspan><tspan class="cls-45" x="16.01" y="0">er</tspan></text><text class="cls-46" transform="translate(50.24 105.29)"><tspan class="cls-47">V</tspan><tspan x="6.3" y="0">a</tspan><tspan class="cls-48" x="12.08" y="0">r</tspan><tspan x="16.06" y="0">ia</tspan><tspan class="cls-49" x="24.65" y="0">n</tspan><tspan x="31.26" y="0">ts and d</tspan><tspan class="cls-48" x="71.05" y="0">r</tspan><tspan x="75.02" y="0">i</tspan><tspan class="cls-50" x="77.83" y="0">v</tspan><tspan class="cls-51" x="83.48" y="0">ers annot</tspan><tspan class="cls-52" x="130.38" y="0">a</tspan><tspan x="136.11" y="0">tion</tspan></text><text class="cls-53" transform="translate(282.82 74.53)"><tspan class="cls-54">Q</tspan><tspan class="cls-51" x="8.3" y="0">uali</tspan><tspan class="cls-55" x="26.34" y="0">t</tspan><tspan x="30.42" y="0">y </tspan><tspan class="cls-56" x="38.62" y="0">C</tspan><tspan x="45.44" y="0">o</tspan><tspan class="cls-52" x="52.03" y="0">n</tspan><tspan x="58.64" y="0">t</tspan><tspan class="cls-15" x="62.61" y="0">r</tspan><tspan class="cls-57" x="66.42" y="0">ol</tspan></text><text class="cls-58" transform="translate(432.16 10.19)">Subclonal <tspan class="cls-48" x="51.97" y="0">D</tspan><tspan x="60.01" y="0">e</tspan><tspan class="cls-59" x="66.02" y="0">c</tspan><tspan class="cls-57" x="71.33" y="0">o</tspan><tspan class="cls-60" x="77.91" y="0">n</tspan><tspan class="cls-61" x="84.42" y="0">v</tspan><tspan x="90.07" y="0">olution</tspan></text><text class="cls-62" transform="translate(432.8 198.99)">Si<tspan class="cls-59" x="8.72" y="0">g</tspan><tspan x="15.36" y="0">n</tspan><tspan class="cls-52" x="22.02" y="0">a</tspan><tspan x="27.76" y="0">tu</tspan><tspan class="cls-15" x="38.34" y="0">r</tspan><tspan class="cls-57" x="42.14" y="0">e </tspan><tspan class="cls-48" x="50.7" y="0">D</tspan><tspan class="cls-57" x="58.74" y="0">e</tspan><tspan class="cls-59" x="64.75" y="0">c</tspan><tspan x="70.06" y="0">o</tspan><tspan class="cls-9" x="76.64" y="0">n</tspan><tspan class="cls-15" x="83.15" y="0">v</tspan><tspan x="88.8" y="0">olution</tspan></text><rect class="cls-63" y="5.52" width="64.28" height="44.82"/><ellipse id="path3447-6-5" data-name="path3447-6" class="cls-64" cx="13.41" cy="19.5" rx="4.23" ry="4.23"/><text class="cls-65" transform="translate(21.34 21.78)"><tspan class="cls-66">R</tspan><tspan x="4.85" y="0">equi</tspan><tspan class="cls-67" x="21.42" y="0">r</tspan><tspan x="24.26" y="0">ed</tspan></text><path id="rect918-9-7-4" data-name="rect918-9-7" class="cls-64" d="M10.45,32.76h5.91a1.26,1.26,0,0,1,1.27,1.29v6a1.26,1.26,0,0,1-1.27,1.3H10.45a1.26,1.26,0,0,1-1.27-1.3v-6A1.26,1.26,0,0,1,10.45,32.76Z"/><text class="cls-65" transform="translate(21.51 39.35)">Optional</text><ellipse id="path3447-6-6" data-name="path3447-6" class="cls-26" cx="319.23" cy="100.32" rx="5.01" ry="5.02"/><ellipse id="path3447-6-7" data-name="path3447-6" class="cls-26" cx="355.64" cy="100.32" rx="5.01" ry="5.02"/><ellipse id="path3447-6-8" data-name="path3447-6" class="cls-26" cx="282.82" cy="100.32" rx="5.01" ry="5.02"/><ellipse id="path3447-6-9" data-name="path3447-6" class="cls-26" cx="57.63" cy="145.99" rx="5.01" ry="5.02"/><text class="cls-8" transform="translate(38.62 126.08)">b<tspan class="cls-68" x="5.69" y="0">c</tspan><tspan class="cls-69" x="10.2" y="0">f</tspan><tspan class="cls-12" x="13.23" y="0">t</tspan><tspan x="16.48" y="0">ools </tspan><tspan x="8.39" y="10">fil</tspan><tspan class="cls-12" x="15.98" y="10">t</tspan><tspan x="19.23" y="10">er</tspan></text><path id="path2500-5-22-13" data-name="path2500-5-22" class="cls-1" d="M390.89,121.21V80.12"/><path id="path2500-5-22-59-1-3" data-name="path2500-5-22-59-1" class="cls-1" d="M409,56.57h-7.74c-5.16,0-10.32,7.08-10.32,14.16V81.35"/><path id="path2500-5-22-59-1-4" data-name="path2500-5-22-59-1" class="cls-1" d="M409,146h-7.74c-5.16,0-10.32-7.08-10.32-14.16V121.21"/><g id="g18488-6" data-name="g18488"><path id="path6276-4-6" data-name="path6276-4" class="cls-21" d="M408.78,87.28v26.09h19.54V93.8l-6.51-6.52Z"/><path id="path5862-6" data-name="path5862" class="cls-22" d="M430,92.17c0-.33-.33-.65-.65-1l-5.54-4.89c-.33-.33-.65-.65-1-.65h-14a1.54,1.54,0,0,0-1.63,1.63v26.09a1.54,1.54,0,0,0,1.63,1.63h19.54a1.54,1.54,0,0,0,1.63-1.63Zm-1.63,21.2H408.78V87.28h13v5.87a.61.61,0,0,0,.65.65h5.86Z"/><path id="rect18347-6" data-name="rect18347" class="cls-23" d="M407.21,97.06h22.67a1.56,1.56,0,0,1,1.7,1.37v7a1.56,1.56,0,0,1-1.7,1.37H407.21a1.56,1.56,0,0,1-1.69-1.37v-7A1.54,1.54,0,0,1,407.21,97.06Z"/><text class="cls-24" transform="translate(410.48 104.94)">rds</text></g><path id="path1232-36-5-9-0-7-7-0-7-3-2-1-0-1-4-1-1-2-2" data-name="path1232-36-5-9-0-7-7-0-7-3-2-1-0-1-4-1-1-2" class="cls-31" d="M476.51,77.81H459c-6.24,0-12.54-3.54-20-10.62s-14-10.62-20-10.62H409"/><path id="path1232-36-5-9-0-7-7-0-7-3-2-1-0-1-4-1-1-2-3" data-name="path1232-36-5-9-0-7-7-0-7-3-2-1-0-1-4-1-1-2" class="cls-4" d="M476.51,167.49H459c-6.24,0-12.54-3.54-20-10.62s-14-10.62-20-10.62H409"/><path id="path1381" class="cls-22" d="M118.88,59.73h2.53l3.28-3.16-3.28-3.17h-2.53Z"/><path id="path1381-2" data-name="path1381" class="cls-22" d="M33.39,149.16h2.53L39.2,146l-3.28-3.16H33.39Z"/><path id="path1381-3" data-name="path1381" class="cls-22" d="M105.36,196.36h2.53l3.28-3.17L107.89,190h-2.53Z"/><path id="path2500-5-22-14" data-name="path2500-5-22" class="cls-1" d="M227.16,58.51V45.32"/><path id="path2500-5-22-2-7-5-2" data-name="path2500-5-22-2-7-5" class="cls-2" d="M221.9,43.88h10.53"/><path id="rect918-9-7-5" data-name="rect918-9-7" class="cls-26" d="M474.72,30.21h7a1.5,1.5,0,0,1,1.51,1.54V38.9a1.5,1.5,0,0,1-1.51,1.54h-7a1.49,1.49,0,0,1-1.5-1.54V31.75A1.49,1.49,0,0,1,474.72,30.21Z"/><path id="rect918-9-7-6" data-name="rect918-9-7" class="cls-26" d="M474.72,51.35h7a1.49,1.49,0,0,1,1.51,1.53V60a1.5,1.5,0,0,1-1.51,1.54h-7a1.49,1.49,0,0,1-1.5-1.54V52.88A1.49,1.49,0,0,1,474.72,51.35Z"/><path id="rect918-9-7-7" data-name="rect918-9-7" class="cls-26" d="M474.72,72.7h7a1.49,1.49,0,0,1,1.51,1.53v7.16a1.49,1.49,0,0,1-1.51,1.53h-7a1.49,1.49,0,0,1-1.5-1.53V74.23A1.49,1.49,0,0,1,474.72,72.7Z"/><path id="rect918-9-7-8" data-name="rect918-9-7" class="cls-26" d="M474.72,119.39h7a1.5,1.5,0,0,1,1.51,1.54v7.16a1.49,1.49,0,0,1-1.51,1.53h-7a1.49,1.49,0,0,1-1.5-1.53v-7.16A1.49,1.49,0,0,1,474.72,119.39Z"/><path id="rect918-9-7-9" data-name="rect918-9-7" class="cls-26" d="M474.72,162.37h7a1.5,1.5,0,0,1,1.51,1.54v7.15a1.5,1.5,0,0,1-1.51,1.54h-7a1.49,1.49,0,0,1-1.5-1.54v-7.15A1.49,1.49,0,0,1,474.72,162.37Z"/><path id="path2500-5-22-2-7-5-3" data-name="path2500-5-22-2-7-5" class="cls-2" d="M221.9,134.67h10.53"/><g id="g18488-7" data-name="g18488"><path id="path6276-4-7" data-name="path6276-4" class="cls-21" d="M555.23,19V45.05h19.54V25.48L568.25,19Z"/><path id="path5862-7" data-name="path5862" class="cls-22" d="M576.4,23.85c0-.33-.33-.65-.65-1L570.21,18c-.33-.33-.65-.65-1-.65h-14A1.54,1.54,0,0,0,553.6,19V45.05a1.54,1.54,0,0,0,1.63,1.63h19.54a1.54,1.54,0,0,0,1.63-1.63Zm-1.63,21.2H555.23V19h13v5.87a.62.62,0,0,0,.66.65h5.86Z"/><path id="rect18347-7" data-name="rect18347" class="cls-23" d="M553.66,28.74h22.67a1.56,1.56,0,0,1,1.7,1.37v7a1.56,1.56,0,0,1-1.7,1.37H553.66A1.56,1.56,0,0,1,552,37.15v-7A1.54,1.54,0,0,1,553.66,28.74Z"/><text class="cls-24" transform="translate(558.83 36.62)">h5</text></g><g id="g18488-8" data-name="g18488"><path id="path6276-4-8" data-name="path6276-4" class="cls-21" d="M555.23,43.33V69.42h19.54V49.86l-6.52-6.53Z"/><path id="path5862-8" data-name="path5862" class="cls-22" d="M576.4,48.23c0-.33-.33-.66-.65-1l-5.54-4.9c-.33-.32-.65-.65-1-.65h-14a1.54,1.54,0,0,0-1.63,1.63V69.42a1.54,1.54,0,0,0,1.63,1.63h19.54a1.54,1.54,0,0,0,1.63-1.63Zm-1.63,21.19H555.23V43.33h13V49.2a.62.62,0,0,0,.66.66h5.86Z"/><path id="rect18347-8" data-name="rect18347" class="cls-23" d="M553.66,53.12h22.67a1.56,1.56,0,0,1,1.7,1.37v7a1.56,1.56,0,0,1-1.7,1.37H553.66A1.56,1.56,0,0,1,552,61.53v-7A1.53,1.53,0,0,1,553.66,53.12Z"/><text class="cls-24" transform="translate(556.93 61)">rds</text></g><g id="g18488-9" data-name="g18488"><path id="path6276-4-9" data-name="path6276-4" class="cls-21" d="M555.23,68.3V94.39h19.54V74.83l-6.52-6.53Z"/><path id="path5862-9" data-name="path5862" class="cls-22" d="M576.4,73.2c0-.33-.33-.66-.65-1l-5.54-4.89c-.33-.33-.65-.66-1-.66h-14a1.54,1.54,0,0,0-1.63,1.63V94.39A1.54,1.54,0,0,0,555.23,96h19.54a1.54,1.54,0,0,0,1.63-1.63Zm-1.63,21.19H555.23V68.3h13v5.87a.62.62,0,0,0,.66.66h5.86Z"/><path id="rect18347-9" data-name="rect18347" class="cls-23" d="M553.66,78.09h22.67a1.56,1.56,0,0,1,1.7,1.37v7a1.56,1.56,0,0,1-1.7,1.37H553.66A1.56,1.56,0,0,1,552,86.5v-7A1.53,1.53,0,0,1,553.66,78.09Z"/><text class="cls-24" transform="translate(556.93 85.97)">rds</text></g><g id="g18488-10" data-name="g18488"><path id="path6276-4-10" data-name="path6276-4" class="cls-21" d="M526.66,153.48v26.09H546.2V160l-6.52-6.52Z"/><path id="path5862-10" data-name="path5862" class="cls-22" d="M547.83,158.37c0-.32-.33-.65-.65-1l-5.54-4.89c-.33-.32-.65-.65-1-.65h-14a1.54,1.54,0,0,0-1.63,1.63v26.09a1.54,1.54,0,0,0,1.63,1.63H546.2a1.54,1.54,0,0,0,1.63-1.63Zm-1.63,21.2H526.66V153.48h13v5.87a.62.62,0,0,0,.66.65h5.86Z"/><path id="rect18347-10" data-name="rect18347" class="cls-23" d="M525.09,163.26h22.67a1.56,1.56,0,0,1,1.7,1.37v7.05a1.56,1.56,0,0,1-1.7,1.37H525.09a1.56,1.56,0,0,1-1.69-1.37v-7.05A1.54,1.54,0,0,1,525.09,163.26Z"/><text class="cls-24" transform="translate(528.36 171.15)">rds</text></g><g id="g18488-11" data-name="g18488"><path id="path6276-4-11" data-name="path6276-4" class="cls-21" d="M526.66,108.27v26.09H546.2V114.79l-6.52-6.52Z"/><path id="path5862-11" data-name="path5862" class="cls-22" d="M547.83,113.16c0-.32-.33-.65-.65-1l-5.54-4.89c-.33-.32-.65-.65-1-.65h-14a1.54,1.54,0,0,0-1.63,1.63v26.09a1.54,1.54,0,0,0,1.63,1.63H546.2a1.54,1.54,0,0,0,1.63-1.63Zm-1.63,21.2H526.66V108.27h13v5.87a.62.62,0,0,0,.66.65h5.86Z"/><path id="rect18347-11" data-name="rect18347" class="cls-23" d="M525.09,118.05h22.67a1.56,1.56,0,0,1,1.7,1.37v7a1.56,1.56,0,0,1-1.7,1.37H525.09a1.56,1.56,0,0,1-1.69-1.37v-7A1.54,1.54,0,0,1,525.09,118.05Z"/><text class="cls-24" transform="translate(529.99 125.93)">txt</text></g><path id="path2500-5-22-15" data-name="path2500-5-22" class="cls-1" d="M224.46,146h18.12"/><path id="path2500-5-22-2-7-5-4" data-name="path2500-5-22-2-7-5" class="cls-2" d="M545.69,30.06V40.59"/><path id="path2500-5-22-2-7-5-5" data-name="path2500-5-22-2-7-5" class="cls-2" d="M545.69,51.2V61.73"/><path id="path2500-5-22-2-7-5-6" data-name="path2500-5-22-2-7-5" class="cls-2" d="M545.69,72.54V83.07"/><path id="path2500-5-22-2-7-5-7" data-name="path2500-5-22-2-7-5" class="cls-2" d="M517,119.24v10.53"/><path id="path2500-5-22-2-7-5-8" data-name="path2500-5-22-2-7-5" class="cls-2" d="M516.8,162.22v10.53"/></svg>
